<svg xmlns="http://www.w3.org/2000/svg" viewBox="0 0 24 24" id="Lufthansa"><path d="M11.972 23.996C5.371 23.996 0 18.627 0 12.027 0 5.397 5.337.003 11.898.003 18.685.003 24 5.294 24 12.049c0 6.588-5.396 11.947-12.028 11.947zm-.074-22.993C5.889 1.003 1 5.949 1 12.027c0 6.048 4.922 10.969 10.972 10.969C18.053 22.996 23 18.085 23 12.049c0-6.194-4.876-11.046-11.102-11.046z" fill="#425c5a" class="color000000 svgShape"></path><path d="M17.228 17a.5.5 0 0 1-.132-.018c-4.693-1.284-5.513-1.644-9.736-4.271-1.674-1.006-2.987-1.651-4.008-1.968a.5.5 0 1 1 .297-.955c1.098.342 2.482 1.019 4.232 2.07 4.029 2.507 4.878 2.895 9.191 4.081l.63-.658a.5.5 0 1 1 .723.691l-.836.874a.504.504 0 0 1-.361.154z" fill="#425c5a" class="color000000 svgShape"></path><path d="M16.381 16.767a.477.477 0 0 1-.139-.02c-1.533-.441-3.491-1.857-4.029-2.915a.5.5 0 0 1 .191-.657c1.336-.79 2.698-1.112 4.703-1.112.235 0 .436 0 .943.028l1.512-1.96c-.92-.092-1.75-.131-2.698-.131-1.285 0-2.353.072-3.181.214-.641 1.611-1.917 2.528-3.541 2.528a.501.501 0 0 1-.319-.115l-.51-.423a.5.5 0 0 1-.181-.372l-3.625-1.607-.307.715a.5.5 0 1 1-.919-.395l.506-1.18a.5.5 0 0 1 .663-.259l4.51 1.999a.502.502 0 0 1 .284.571l.073.061c1.189-.066 2.081-.813 2.521-2.121a.501.501 0 0 1 .374-.331C14.151 9.093 15.345 9 16.864 9c1.283 0 2.355.069 3.699.238a.5.5 0 0 1 .334.801l-2.215 2.871a.502.502 0 0 1-.427.194c-.673-.041-.888-.041-1.146-.041-1.59 0-2.685.204-3.72.715.635.732 1.996 1.682 3.131 2.008a.5.5 0 0 1-.139.981z" fill="#425c5a" class="color000000 svgShape"></path><path d="M19.421 11.633c-.016 0-.031 0-.047-.002-2.362-.22-3.722-.036-3.735-.034a.5.5 0 0 1-.141-.99c.058-.009 1.474-.205 3.969.028a.5.5 0 0 1-.046.998z" fill="#425c5a" class="color000000 svgShape"></path></svg>